<svg
  width="176.674"
  height="52.872"
  viewBox="0 0 176.67398 52.871712"
  fill="none"
  xmlns="http://www.w3.org/2000/svg"
>
  <g transform="translate(-8.6316436,-7.3845706)">
    <circle
      cx="23.959417"
      cy="43.465775"
      r="7.6386104"
      stroke="#000000"
      stroke-width="1.107"
    />
    <circle
      cx="24.202127"
      cy="43.091736"
      r="11.525803"
      stroke="#000000"
      stroke-width="0.916"
    />
    <circle
      cx="163.12111"
      cy="21.973089"
      r="2.0225217"
      stroke="#000000"
      stroke-width="1.107"
    />
    <path
      d="m 26.559372,26.764728 23.205225,-0.136903 16.770739,-15.81241 c 1.010948,-0.741939 1.943402,-1.5684097 3.76486,-1.437492 L 182.83527,9.5832789 c 0.83268,0.1171307 1.46827,0.4806281 1.5744,1.5059441 l 0.34226,10.267798 c -0.0262,1.212295 -0.92615,1.004915 -1.64285,1.095233 l -8.48805,-0.136905 c -1.54957,0.236777 -1.72795,0.708456 -1.91665,1.505944 l -0.41072,3.217245 C 124.24539,38.855708 75.860272,49.170204 27.517701,59.690137 2.4002919,60.452365 4.0703895,26.72593 26.559372,26.764728 Z"
      stroke="#000000"
      stroke-width="1.107"
    />
    <path
      d="m 25.04282,31.414971 23.21484,-0.582345 c 3.396065,-0.499393 6.571583,-1.623665 9.196544,-4.307853 L 68.199639,15.440515 c 0.906516,-0.953421 2.277095,-1.603148 3.339799,-1.403683 l 79.525912,1.306877 c 0.68954,0.234344 1.40863,0.409589 1.59729,1.645698 l -0.0484,14.327247 -44.33703,10.164604 -0.38722,-1.936115 c -1.05306,-1.270519 -1.63514,-1.131567 -2.32333,-1.306878 L 24.864812,54.571002 C 9.3080079,54.635635 8.0052179,32.463345 25.04282,31.414971 Z"
      stroke="#000000"
      stroke-width="1.107"
    />
    <rect
      x="134.07594"
      y="7.9380703"
      width="33.204369"
      height="0.77444589"
      stroke="#000000"
      stroke-width="1.107"
    />
    <path
      d="M 154.15389,30.734944 V 17.249902 c 0.24653,-0.671673 0.49264,-1.343635 1.36904,-1.574396 h 15.12789 c 0.50222,0.227437 1.10119,0.164655 1.30058,1.300588 l 0.13691,9.788634 z"
      stroke="#000000"
      stroke-width="1.107"
    />
  </g>
</svg>
